<svg width="16" height="16" fill="none" xmlns="http://www.w3.org/2000/svg"><path d="M5.659 6.828a9.383 9.383 0 003.513 3.513l.785-1.1a.889.889 0 011.15-.263c1.258.687 2.646 1.1 4.074 1.212a.889.889 0 01.819.886v3.967a.89.89 0 01-.798.884c-.471.049-.946.073-1.424.073C6.168 16 0 9.831 0 2.222 0 1.744.024 1.27.073.798A.889.889 0 01.957 0h3.967a.889.889 0 01.886.819 10.153 10.153 0 001.212 4.073.889.889 0 01-.263 1.15l-1.1.786zm-2.242-.584l1.689-1.206a11.92 11.92 0 01-.975-3.26H1.787a12.3 12.3 0 00-.008.444c-.001 6.628 5.371 12 11.999 12 .148 0 .297-.002.444-.009V11.87a11.92 11.92 0 01-3.26-.975l-1.206 1.69a11.06 11.06 0 01-1.412-.668l-.052-.029a11.16 11.16 0 01-4.18-4.18l-.028-.051a11.059 11.059 0 01-.667-1.412z" fill="#fff"/></svg>